<?xml version="1.0" encoding="UTF-8" standalone="no" ?>
<!DOCTYPE svg PUBLIC "-//W3C//DTD SVG 1.1//EN" "http://www.w3.org/Graphics/SVG/1.1/DTD/svg11.dtd">
<svg xmlns="http://www.w3.org/2000/svg" xmlns:xlink="http://www.w3.org/1999/xlink" version="1.1" width="380" height="380" viewBox="0 0 380 380" xml:space="preserve">
<desc>Created with Fabric.js 5.3.0</desc>
<defs>
</defs>
<g transform="matrix(2.3881400125 0 0 2.3881400125 190 283.7385618296)" id="C0GeqDS4sSg3Tsyl0P2cc"  >
<g style=""   >
		<g transform="matrix(1 0 0 1 -0.499974963 -8.8565)" id="yrsj_X-Ze1oCt7taMZOHt"  >
<path style="stroke: none; stroke-width: 1; stroke-dasharray: none; stroke-linecap: butt; stroke-dashoffset: 0; stroke-linejoin: miter; stroke-miterlimit: 4; fill: rgb(7,132,64); fill-rule: evenodd; opacity: 1;"  transform=" translate(-189.500025037, -181.1435)" d="M 137.815 169.045 L 114.778 201.429 C 112.821 204.181 114.782 208 118.153 208 L 260.854 208 C 264.221 208 266.175 204.176 264.225 201.424 L 237.802 164.136 L 225.347 171.44 C 225.118 178.125 219.641 183.475 212.918 183.475 C 206.049 183.475 200.48 177.892 200.48 171.004 C 200.48 170.655 200.495 170.31 200.523 169.969 L 180.559 155.317 C 178.417 157.068 175.683 158.118 172.704 158.118 C 169.18 158.118 165.998 156.648 163.735 154.287 L 137.815 169.045 Z" stroke-linecap="round" />
</g>
		<g transform="matrix(1 0 0 1 -0.5185740241 -69.3289987513)" id="U2fGcj5lQeoVAqqEM4JAZ"  >
<path style="stroke: none; stroke-width: 1; stroke-dasharray: none; stroke-linecap: butt; stroke-dashoffset: 0; stroke-linejoin: miter; stroke-miterlimit: 4; fill: rgb(0,180,83); fill-rule: evenodd; opacity: 1;"  transform=" translate(-189.4814259759, -120.6710012487)" d="M 186.218 79.7415 L 137.993 147.608 C 136.591 149.581 137.161 152.332 139.231 153.582 L 143.577 156.205 L 160.31 146.677 C 160.282 146.338 160.268 145.994 160.268 145.647 C 160.268 138.76 165.836 133.177 172.705 133.177 C 179.574 133.177 185.142 138.76 185.142 145.647 C 185.142 146.518 185.053 147.367 184.884 148.187 L 204.054 162.257 C 206.31 159.958 209.448 158.533 212.919 158.533 C 216.907 158.533 220.457 160.416 222.733 163.342 L 240.545 152.896 C 241.925 151.497 242.166 149.244 240.973 147.558 L 192.98 79.7542 C 191.329 77.4222 187.873 77.4126 186.218 79.7415 Z" stroke-linecap="round" />
</g>
		<g transform="matrix(1 0 0 1 -130.3891 73.345)" id="N6HW2r5urVCxIDY_UxOF8"  >
<path style="stroke: none; stroke-width: 1; stroke-dasharray: none; stroke-linecap: butt; stroke-dashoffset: 0; stroke-linejoin: miter; stroke-miterlimit: 4; fill: rgb(19,23,34); fill-rule: nonzero; opacity: 1;"  transform=" translate(-59.6109, -263.345)" d="M 59.2144 241.69 L 44.8184 241.69 L 44.8184 285 L 53.6634 285 L 53.6634 270.848 L 59.2144 270.848 C 67.9984 270.848 74.4034 264.504 74.4034 256.269 C 74.4034 248.034 67.9984 241.69 59.2144 241.69 Z M 59.0924 262.552 L 53.6634 262.552 L 53.6634 249.986 L 59.0924 249.986 C 63.1184 249.986 65.8024 252.731 65.8024 256.269 C 65.8024 259.807 63.1184 262.552 59.0924 262.552 Z" stroke-linecap="round" />
</g>
		<g transform="matrix(1 0 0 1 -107.3931 71.942)" id="sUIV2hFdxNcs_OGFH0xhW"  >
<path style="stroke: none; stroke-width: 1; stroke-dasharray: none; stroke-linecap: butt; stroke-dashoffset: 0; stroke-linejoin: miter; stroke-miterlimit: 4; fill: rgb(19,23,34); fill-rule: nonzero; opacity: 1;"  transform=" translate(-82.6069, -261.942)" d="M 87.9444 244.191 C 87.9444 241.263 85.5654 238.884 82.5764 238.884 C 79.7094 238.884 77.2694 241.263 77.2694 244.191 C 77.2694 247.119 79.7094 249.498 82.5764 249.498 C 85.5654 249.498 87.9444 247.119 87.9444 244.191 Z M 78.4284 285 L 86.7854 285 L 86.7854 254.5 L 78.4284 254.5 L 78.4284 285 Z" stroke-linecap="round" />
</g>
		<g transform="matrix(1 0 0 1 -81.9834 79.4145)" id="3-S83Hz3e6A52pvHCIHdc"  >
<path style="stroke: none; stroke-width: 1; stroke-dasharray: none; stroke-linecap: butt; stroke-dashoffset: 0; stroke-linejoin: miter; stroke-miterlimit: 4; fill: rgb(19,23,34); fill-rule: nonzero; opacity: 1;"  transform=" translate(-108.0166, -269.4145)" d="M 93.5902 285 L 101.947 285 L 101.947 270.116 C 101.947 264.26 104.875 261.454 108.718 261.454 C 112.195 261.454 114.086 264.138 114.086 268.53 L 114.086 285 L 122.443 285 L 122.443 267.127 C 122.443 259.197 118.051 253.829 110.67 253.829 C 106.705 253.829 103.533 255.537 101.947 257.977 L 101.947 254.5 L 93.5902 254.5 L 93.5902 285 Z" stroke-linecap="round" />
</g>
		<g transform="matrix(1 0 0 1 -47.5405 79.75)" id="OD_YavZKc5UiVIRs6OiqM"  >
<path style="stroke: none; stroke-width: 1; stroke-dasharray: none; stroke-linecap: butt; stroke-dashoffset: 0; stroke-linejoin: miter; stroke-miterlimit: 4; fill: rgb(19,23,34); fill-rule: nonzero; opacity: 1;"  transform=" translate(-142.4595, -269.75)" d="M 126.935 269.75 C 126.935 279.388 134.011 285.671 143.1 285.671 C 149.505 285.671 154.446 282.926 157.252 278.839 L 151.03 274.203 C 149.688 276.277 146.943 278.046 143.161 278.046 C 139.135 278.046 135.536 275.789 135.048 271.702 L 157.862 271.702 C 157.984 270.421 157.984 269.567 157.984 268.835 C 157.984 258.953 150.969 253.829 142.978 253.829 C 133.706 253.829 126.935 260.722 126.935 269.75 Z M 142.734 260.722 C 145.845 260.722 148.895 262.43 149.627 266.029 L 135.353 266.029 C 136.146 262.308 139.623 260.722 142.734 260.722 Z" stroke-linecap="round" />
</g>
		<g transform="matrix(1 0 0 1 -1.293 73.345)" id="SInWPDHlMxZfir1YgTyI-"  >
<path style="stroke: none; stroke-width: 1; stroke-dasharray: none; stroke-linecap: butt; stroke-dashoffset: 0; stroke-linejoin: miter; stroke-miterlimit: 4; fill: rgb(19,23,34); fill-rule: nonzero; opacity: 1;"  transform=" translate(-188.707, -263.345)" d="M 173.213 277.985 C 176.324 282.743 182.119 285.732 189.012 285.732 C 197.979 285.732 204.14 280.425 204.201 272.678 C 204.201 266.151 200.236 262.125 193.892 259.807 L 190.415 258.526 C 185.84 256.879 183.705 255.72 183.705 253.097 C 183.705 250.535 186.511 249.254 189.5 249.254 C 192.489 249.254 195.173 250.474 197.247 252.975 L 203.103 246.936 C 199.382 242.788 194.746 240.958 189.439 240.958 C 181.021 240.958 174.799 245.777 174.799 253.951 C 174.799 259.868 178.52 263.894 185.474 266.334 L 189.134 267.615 C 193.404 269.079 195.173 270.787 195.173 273.227 C 195.173 275.728 192.855 277.436 189.378 277.436 C 185.84 277.436 182.119 275.545 179.984 272.312 L 173.213 277.985 Z" stroke-linecap="round" />
</g>
		<g transform="matrix(1 0 0 1 32.58 79.75)" id="064B23CHOIvYQr_BA_Ied"  >
<path style="stroke: none; stroke-width: 1; stroke-dasharray: none; stroke-linecap: butt; stroke-dashoffset: 0; stroke-linejoin: miter; stroke-miterlimit: 4; fill: rgb(19,23,34); fill-rule: nonzero; opacity: 1;"  transform=" translate(-222.58, -269.75)" d="M 237.891 276.887 L 230.632 272.983 C 229.412 275.789 226.789 277.863 223.434 277.863 C 219.042 277.863 215.687 274.447 215.687 269.75 C 215.687 265.053 219.042 261.637 223.434 261.637 C 226.789 261.637 229.412 263.711 230.632 266.517 L 237.891 262.613 C 235.268 257.367 229.778 253.829 223.434 253.829 C 214.406 253.829 207.269 260.539 207.269 269.75 C 207.269 278.961 214.406 285.671 223.434 285.671 C 229.778 285.671 235.268 282.133 237.891 276.887 Z" stroke-linecap="round" />
</g>
		<g transform="matrix(1 0 0 1 61.3795 79.567)" id="u79JfNhuoI3tajB0QErCR"  >
<path style="stroke: none; stroke-width: 1; stroke-dasharray: none; stroke-linecap: butt; stroke-dashoffset: 0; stroke-linejoin: miter; stroke-miterlimit: 4; fill: rgb(19,23,34); fill-rule: nonzero; opacity: 1;"  transform=" translate(-251.3795, -269.567)" d="M 242.016 285 L 250.373 285 L 250.373 270.421 C 250.373 265.419 252.996 262.308 256.961 262.308 C 258.303 262.308 259.462 262.552 260.743 262.979 L 260.743 254.5 C 259.706 254.195 258.791 254.134 257.937 254.134 C 254.521 254.134 251.41 256.391 250.373 259.38 L 250.373 254.5 L 242.016 254.5 L 242.016 285 Z" stroke-linecap="round" />
</g>
		<g transform="matrix(1 0 0 1 79.0405 71.942)" id="HBcanrqlTTQrQ0ey4YlzN"  >
<path style="stroke: none; stroke-width: 1; stroke-dasharray: none; stroke-linecap: butt; stroke-dashoffset: 0; stroke-linejoin: miter; stroke-miterlimit: 4; fill: rgb(19,23,34); fill-rule: nonzero; opacity: 1;"  transform=" translate(-269.0405, -261.942)" d="M 274.378 244.191 C 274.378 241.263 271.999 238.884 269.01 238.884 C 266.143 238.884 263.703 241.263 263.703 244.191 C 263.703 247.119 266.143 249.498 269.01 249.498 C 271.999 249.498 274.378 247.119 274.378 244.191 Z M 264.862 285 L 273.219 285 L 273.219 254.5 L 264.862 254.5 L 264.862 285 Z" stroke-linecap="round" />
</g>
		<g transform="matrix(1 0 0 1 105.7925 85.789)" id="ZytV8amZN-199_5t4yesj"  >
<path style="stroke: none; stroke-width: 1; stroke-dasharray: none; stroke-linecap: butt; stroke-dashoffset: 0; stroke-linejoin: miter; stroke-miterlimit: 4; fill: rgb(19,23,34); fill-rule: nonzero; opacity: 1;"  transform=" translate(-295.7925, -275.789)" d="M 280.024 297.749 L 288.381 297.749 L 288.381 281.584 C 289.784 283.536 293.017 285.671 297.226 285.671 C 305.339 285.671 311.561 278.412 311.561 269.75 C 311.561 261.088 305.339 253.829 297.226 253.829 C 293.017 253.829 289.784 255.964 288.381 257.916 L 288.381 254.5 L 280.024 254.5 L 280.024 297.749 Z M 303.082 269.75 C 303.082 274.508 299.971 278.046 295.396 278.046 C 290.821 278.046 287.71 274.508 287.71 269.75 C 287.71 264.992 290.821 261.454 295.396 261.454 C 299.971 261.454 303.082 264.992 303.082 269.75 Z" stroke-linecap="round" />
</g>
		<g transform="matrix(1 0 0 1 134.3065 75.6935)" id="brrX3pnyYVUhIQN8LO4yL"  >
<path style="stroke: none; stroke-width: 1; stroke-dasharray: none; stroke-linecap: butt; stroke-dashoffset: 0; stroke-linejoin: miter; stroke-miterlimit: 4; fill: rgb(19,23,34); fill-rule: nonzero; opacity: 1;"  transform=" translate(-324.3065, -265.6935)" d="M 335.866 284.695 L 335.866 277.314 C 334.89 277.68 333.792 277.863 332.45 277.863 C 328.851 277.863 327.265 276.399 327.265 272.678 L 327.265 261.82 L 335.866 261.82 L 335.866 254.5 L 327.265 254.5 L 327.265 246.021 L 318.908 246.021 L 318.908 254.5 L 312.747 254.5 L 312.747 261.82 L 318.908 261.82 L 318.908 274.325 C 318.908 281.767 324.093 285.366 330.559 285.366 C 332.877 285.366 334.524 285.122 335.866 284.695 Z" stroke-linecap="round" />
</g>
		<g transform="matrix(1 0 0 1 157.92 91.65)" id="s-d2gizyTtJ6ZspL69t07"  >
<path style="stroke: none; stroke-width: 1; stroke-dasharray: none; stroke-linecap: butt; stroke-dashoffset: 0; stroke-linejoin: miter; stroke-miterlimit: 4; fill: rgb(19,23,34); fill-rule: nonzero; opacity: 1;"  transform=" translate(-347.92, -281.65)" d="M 347.9 285.5 L 349.3 285.5 L 349.3 280.2 L 351.54 283.36 L 353.76 280.2 L 353.76 285.5 L 355.16 285.5 L 355.16 277.8 L 353.8 277.8 L 351.54 281 L 349.26 277.8 L 347.9 277.8 L 347.9 285.5 Z M 342.92 285.5 L 344.36 285.5 L 344.36 279.2 L 346.6 279.2 L 346.6 277.8 L 340.68 277.8 L 340.68 279.2 L 342.92 279.2 L 342.92 285.5 Z" stroke-linecap="round" />
</g>
</g>
</g>
</svg>